<mxfile host="Electron" agent="Mozilla/5.0 (Windows NT 10.0; Win64; x64) AppleWebKit/537.36 (KHTML, like Gecko) draw.io/26.0.15 Chrome/132.0.6834.196 Electron/34.2.0 Safari/537.36" version="26.0.15">
  <diagram id="process-4-payment" name="Payment Processing">
    <mxGraphModel dx="1050" dy="669" grid="1" gridSize="10" guides="1" tooltips="1" connect="1" arrows="1" fold="1" page="1" pageScale="1" pageWidth="827" pageHeight="1169" math="0" shadow="0">
      <root>
        <mxCell id="0" />
        <mxCell id="1" parent="0" />
        <mxCell id="2" value="Пациент" style="html=1;dashed=0;whitespace=wrap;shape=mxgraph.dfd.externalEntity;fontSize=14;" parent="1" vertex="1">
          <mxGeometry x="80" y="200" width="100" height="100" as="geometry" />
        </mxCell>
        <mxCell id="3" value="Кассир" style="html=1;dashed=0;whitespace=wrap;shape=mxgraph.dfd.externalEntity;fontSize=14;" parent="1" vertex="1">
          <mxGeometry x="320" y="200" width="100" height="100" as="geometry" />
        </mxCell>
        <mxCell id="4" value="Бухгалтер" style="html=1;dashed=0;whitespace=wrap;shape=mxgraph.dfd.externalEntity;fontSize=14;" parent="1" vertex="1">
          <mxGeometry x="640" y="200" width="100" height="100" as="geometry" />
        </mxCell>
        <mxCell id="5" value="4.1&#xa;Прием&#xa;оплаты" style="shape=ellipse;html=1;dashed=0;whitespace=wrap;perimeter=ellipsePerimeter;fontSize=14;" parent="1" vertex="1">
          <mxGeometry x="320" y="380" width="100" height="100" as="geometry" />
        </mxCell>
        <mxCell id="6" value="4.2&#xa;Формирование&#xa;чека" style="shape=ellipse;html=1;dashed=0;whitespace=wrap;perimeter=ellipsePerimeter;fontSize=14;" parent="1" vertex="1">
          <mxGeometry x="330" y="585" width="100" height="100" as="geometry" />
        </mxCell>
        <mxCell id="7" value="4.3&#xa;Обработка&#xa;платежей" style="shape=ellipse;html=1;dashed=0;whitespace=wrap;perimeter=ellipsePerimeter;fontSize=14;" parent="1" vertex="1">
          <mxGeometry x="640" y="380" width="100" height="100" as="geometry" />
        </mxCell>
        <mxCell id="8" value="ККМ" style="html=1;dashed=0;whitespace=wrap;shape=mxgraph.dfd.dataStoreID;align=left;spacingLeft=30;fontSize=14;" parent="1" vertex="1">
          <mxGeometry x="30" y="500" width="140" height="60" as="geometry" />
        </mxCell>
        <mxCell id="9" value="1С Бухгалтерия" style="html=1;dashed=0;whitespace=wrap;shape=mxgraph.dfd.dataStoreID;align=left;spacingLeft=30;fontSize=14;" parent="1" vertex="1">
          <mxGeometry x="460" y="270" width="140" height="60" as="geometry" />
        </mxCell>
        <mxCell id="10" value="Excel-журнал платежей" style="html=1;dashed=0;whitespace=wrap;shape=mxgraph.dfd.dataStoreID;align=left;spacingLeft=30;fontSize=14;" parent="1" vertex="1">
          <mxGeometry x="550" y="620" width="140" height="60" as="geometry" />
        </mxCell>
        <mxCell id="11" value="Оплата услуг" style="html=1;verticalAlign=bottom;endArrow=block;entryX=0;entryY=0.5;exitX=1;exitY=0.5;" parent="1" source="2" target="3" edge="1">
          <mxGeometry width="80" relative="1" as="geometry">
            <mxPoint x="200" y="390" as="sourcePoint" />
            <mxPoint x="280" y="390" as="targetPoint" />
          </mxGeometry>
        </mxCell>
        <mxCell id="12" value="Прием платежа" style="html=1;verticalAlign=bottom;endArrow=block;entryX=0.5;entryY=0;exitX=0.5;exitY=1;" parent="1" source="3" target="5" edge="1">
          <mxGeometry width="80" relative="1" as="geometry">
            <mxPoint x="330" y="330" as="sourcePoint" />
            <mxPoint x="410" y="330" as="targetPoint" />
          </mxGeometry>
        </mxCell>
        <mxCell id="13" value="Платежные данные (FIN-H)" style="html=1;verticalAlign=bottom;endArrow=block;entryX=0;entryY=0.5;exitX=1;exitY=0.5;" parent="1" source="5" target="9" edge="1">
          <mxGeometry width="80" relative="1" as="geometry">
            <mxPoint x="430" y="430" as="sourcePoint" />
            <mxPoint x="510" y="430" as="targetPoint" />
          </mxGeometry>
        </mxCell>
        <mxCell id="14" value="Дублирующая запись (FIN-M)" style="html=1;verticalAlign=bottom;endArrow=block;entryX=0;entryY=0.5;exitX=0.5;exitY=1;" parent="1" source="5" target="10" edge="1">
          <mxGeometry width="80" relative="1" as="geometry">
            <mxPoint x="370" y="510" as="sourcePoint" />
            <mxPoint x="450" y="510" as="targetPoint" />
            <Array as="points">
              <mxPoint x="370" y="510" />
              <mxPoint x="450" y="510" />
              <mxPoint x="450" y="590" />
            </Array>
          </mxGeometry>
        </mxCell>
        <mxCell id="15" value="Формирование чека" style="html=1;verticalAlign=bottom;endArrow=block;entryX=0.5;entryY=0;exitX=0.5;exitY=1;" parent="1" source="5" target="6" edge="1">
          <mxGeometry width="80" relative="1" as="geometry">
            <mxPoint x="330" y="510" as="sourcePoint" />
            <mxPoint x="410" y="510" as="targetPoint" />
          </mxGeometry>
        </mxCell>
        <mxCell id="16" value="Передача данных о платеже" style="html=1;verticalAlign=bottom;endArrow=block;entryX=0.657;entryY=1.04;exitX=0;exitY=0.5;entryDx=0;entryDy=0;entryPerimeter=0;" parent="1" source="6" target="8" edge="1">
          <mxGeometry width="80" relative="1" as="geometry">
            <mxPoint x="260" y="610" as="sourcePoint" />
            <mxPoint x="340" y="610" as="targetPoint" />
          </mxGeometry>
        </mxCell>
        <mxCell id="17" value="Обработка платежей" style="html=1;verticalAlign=bottom;endArrow=block;entryX=0.5;entryY=0;exitX=0.5;exitY=1;" parent="1" source="4" target="7" edge="1">
          <mxGeometry width="80" relative="1" as="geometry">
            <mxPoint x="590" y="330" as="sourcePoint" />
            <mxPoint x="670" y="330" as="targetPoint" />
          </mxGeometry>
        </mxCell>
        <mxCell id="18" value="Данные платежей" style="html=1;verticalAlign=bottom;endArrow=block;entryX=1;entryY=0.5;exitX=0;exitY=0.5;" parent="1" source="7" target="9" edge="1">
          <mxGeometry width="80" relative="1" as="geometry">
            <mxPoint x="570" y="430" as="sourcePoint" />
            <mxPoint x="650" y="430" as="targetPoint" />
          </mxGeometry>
        </mxCell>
        <mxCell id="19" value="Сверка" style="html=1;verticalAlign=bottom;endArrow=block;entryX=1;entryY=0.5;exitX=0.5;exitY=1;" parent="1" source="7" target="10" edge="1">
          <mxGeometry width="80" relative="1" as="geometry">
            <mxPoint x="640" y="510" as="sourcePoint" />
            <mxPoint x="720" y="510" as="targetPoint" />
            <Array as="points">
              <mxPoint x="690" y="510" />
              <mxPoint x="690" y="590" />
            </Array>
          </mxGeometry>
        </mxCell>
        <mxCell id="20" value="Данные ККМ (TCP/IP)" style="html=1;verticalAlign=bottom;endArrow=block;exitX=0.5;exitY=0;entryX=0.443;entryY=0.98;entryDx=0;entryDy=0;entryPerimeter=0;" parent="1" source="8" target="9" edge="1">
          <mxGeometry x="0.5636" y="10" width="80" relative="1" as="geometry">
            <mxPoint x="290" y="460" as="sourcePoint" />
            <mxPoint x="370" y="460" as="targetPoint" />
            <Array as="points">
              <mxPoint x="290" y="480" />
              <mxPoint x="480" y="500" />
            </Array>
            <mxPoint as="offset" />
          </mxGeometry>
        </mxCell>
      </root>
    </mxGraphModel>
  </diagram>
</mxfile>
